<?xml version="1.0" encoding="UTF-8" standalone="no"?>
<svg width="237px" height="240px" viewBox="0 0 237 240" version="1.1" xmlns="http://www.w3.org/2000/svg" xmlns:xlink="http://www.w3.org/1999/xlink" xmlns:sketch="http://www.bohemiancoding.com/sketch/ns">
    <!-- Generator: Sketch 3.3.2 (12043) - http://www.bohemiancoding.com/sketch -->
    <title>Slice 1</title>
    <desc>Created with Sketch.</desc>
    <defs>
        <linearGradient x1="50%" y1="100%" x2="50%" y2="0%" id="linearGradient-1">
            <stop stop-color="#EA693F" stop-opacity="0.77" offset="0%"></stop>
            <stop stop-color="#A8A697" offset="0%"></stop>
            <stop stop-color="#FFFFFF" offset="100%"></stop>
        </linearGradient>
    </defs>
    <g id="Page-1" stroke="none" stroke-width="1" fill="none" fill-rule="evenodd" sketch:type="MSPage">
        <g id="Logo" sketch:type="MSLayerGroup">
            <path d="M97.3223305,51.8104442 C87.5592232,61.5735515 87.5592232,77.402676 97.3223305,87.1657833 L113.583244,103.426697 C113.967263,103.810716 114.467143,104.007502 114.969766,104.015231 C115.491257,104.02325 116.015701,103.827752 116.416756,103.426697 L132.67767,87.1657833 C142.440777,77.402676 142.440777,61.5735515 132.67767,51.8104442 C122.914562,42.0473369 107.085438,42.0473369 97.3223305,51.8104442 Z" id="Callout-Background-Copy" fill="url(#linearGradient-1)" sketch:type="MSShapeGroup" transform="translate(115.000000, 74.251791) rotate(-270.000000) translate(-115.000000, -74.251791) "></path>
            <path d="M143.038185,94.8104442 C133.275078,104.573552 133.275078,120.402676 143.038185,130.165783 L159.299099,146.426697 C159.683117,146.810716 160.182997,147.007502 160.68562,147.015231 C161.207112,147.02325 161.731556,146.827752 162.13261,146.426697 L178.393524,130.165783 C188.156631,120.402676 188.156631,104.573552 178.393524,94.8104442 C168.630417,85.0473369 152.801292,85.0473369 143.038185,94.8104442 Z" id="Callout-Background-Copy-2" fill="url(#linearGradient-1)" sketch:type="MSShapeGroup"></path>
            <path d="M188.085909,51.3105426 C178.322802,61.0736499 178.322802,76.9027744 188.085909,86.6658817 L204.346823,102.926796 C204.730841,103.310814 205.733344,104.515329 205.733344,104.515329 C205.733344,104.515329 206.77928,103.32785 207.180334,102.926796 L223.441248,86.6658817 C233.204355,76.9027744 233.204355,61.0736499 223.441248,51.3105426 C213.678141,41.5474354 197.849016,41.5474354 188.085909,51.3105426 Z" id="Callout-Background-Copy-3" fill="url(#linearGradient-1)" sketch:type="MSShapeGroup" transform="translate(205.763579, 74.251791) rotate(-90.000000) translate(-205.763579, -74.251791) "></path>
            <path d="M143.038185,8.31044423 C133.275078,18.0735515 133.275078,33.902676 143.038185,43.6657833 L159.299099,59.9266973 C159.683117,60.3107155 160.182997,60.5075016 160.68562,60.5152308 C161.207112,60.5232501 161.731556,60.3277517 162.13261,59.9266973 L178.393524,43.6657833 C188.156631,33.902676 188.156631,18.0735515 178.393524,8.31044423 C168.630417,-1.45266306 152.801292,-1.45266306 143.038185,8.31044423 Z" id="Callout-Background-Copy-4" fill="url(#linearGradient-1)" sketch:type="MSShapeGroup" transform="translate(160.715855, 30.751791) rotate(-180.000000) translate(-160.715855, -30.751791) "></path>
            <path d="M160.5,147.5 L160.5,197.319675" id="Line" stroke="#979797" stroke-linecap="square" sketch:type="MSShapeGroup"></path>
            <path d="M4.41810536,179.963867 L1.99232411,175.455078 C1.6993539,174.910154 1.47669988,174.520509 1.32435536,174.286133 C1.17201085,174.051757 1.01966863,173.867188 0.867324114,173.732422 C0.714979602,173.597656 0.53920011,173.498047 0.339980364,173.433594 L0.339980364,173.00293 L4.08412099,173.00293 L4.08412099,173.433594 C3.53333698,173.498047 3.25794911,173.73535 3.25794911,174.145508 C3.25794911,174.315431 3.2974995,174.505858 3.37660146,174.716797 C3.45570342,174.927735 3.59779184,175.226561 3.80287099,175.613281 L5.56068349,178.961914 L7.2921288,175.90332 C7.52650497,175.487303 7.69203066,175.145997 7.78871083,174.879395 C7.885391,174.612792 7.93373036,174.368165 7.93373036,174.145508 C7.93373036,173.934569 7.87074271,173.769044 7.74476552,173.648926 C7.61878833,173.528808 7.43275503,173.457031 7.18666005,173.433594 L7.18666005,173.00293 L10.5177147,173.00293 L10.5177147,173.433594 C10.2774792,173.521485 10.0665438,173.643066 9.88490224,173.79834 C9.70326071,173.953614 9.51869224,174.163085 9.3311913,174.426758 C9.14369036,174.690431 8.86830249,175.135739 8.50501943,175.762695 L6.06166005,179.928711 L6.06166005,182.776367 C6.06166005,183.110353 6.079238,183.379882 6.11439443,183.584961 C6.14955085,183.79004 6.20814402,183.954101 6.29017568,184.077148 C6.37220734,184.200196 6.48060469,184.296875 6.61537099,184.367188 C6.75013729,184.4375 6.96107268,184.504882 7.24818349,184.569336 L7.24818349,185 L3.23158193,185 L3.23158193,184.569336 C3.51283333,184.510742 3.72083907,184.447754 3.85560536,184.380371 C3.99037166,184.312988 4.09876902,184.216309 4.18080068,184.090332 C4.26283234,183.964355 4.32289033,183.798829 4.36097646,183.59375 C4.39906259,183.388671 4.41810536,183.116213 4.41810536,182.776367 L4.41810536,179.963867 Z M18.0436132,173.152344 L18.0436132,174.857422 L16.4264257,174.857422 L16.4264257,173.152344 L18.0436132,173.152344 Z M15.5299413,184.569336 C15.7584581,184.499023 15.9210541,184.4375 16.0177343,184.384766 C16.1144145,184.332031 16.1964449,184.25879 16.263828,184.165039 C16.3312112,184.071289 16.383945,183.927735 16.4220312,183.734375 C16.4601173,183.541015 16.4791601,183.23926 16.4791601,182.829102 L16.4791601,178.99707 C16.4791601,178.622068 16.4733008,178.320314 16.4615819,178.091797 C16.4498631,177.86328 16.4088479,177.680176 16.3385351,177.54248 C16.2682222,177.404784 16.1612897,177.302246 16.0177343,177.234863 C15.8741789,177.16748 15.6705676,177.110352 15.4068944,177.063477 L15.4068944,176.597656 L17.454746,176.518555 L17.9908788,176.518555 L17.9908788,182.802734 C17.9908788,183.306643 18.0143161,183.656737 18.0611913,183.853027 C18.1080666,184.049317 18.1974211,184.19873 18.3292577,184.30127 C18.4610943,184.403809 18.6764242,184.493164 18.9752538,184.569336 L18.9752538,185 L15.5299413,185 L15.5299413,184.569336 Z M27.1075976,182.802734 C27.1075976,183.306643 27.1310349,183.656737 27.1779101,183.853027 C27.2247853,184.049317 27.3141399,184.19873 27.4459765,184.30127 C27.5778131,184.403809 27.793143,184.493164 28.0919726,184.569336 L28.0919726,185 L24.6027148,185 L24.6027148,184.569336 C24.895685,184.493164 25.0992962,184.414063 25.2135546,184.332031 C25.327813,184.25 25.4098434,184.151856 25.4596484,184.037598 C25.5094533,183.923339 25.5446092,183.768067 25.5651171,183.571777 C25.585625,183.375487 25.5958788,183.119142 25.5958788,182.802734 L25.5958788,175.446289 C25.5958788,174.883786 25.5914844,174.491212 25.5826952,174.268555 C25.5739061,174.045897 25.5504689,173.856934 25.5123827,173.70166 C25.4742966,173.546386 25.4215628,173.424805 25.3541796,173.336914 C25.2867965,173.249023 25.1959771,173.178711 25.0817187,173.125977 C24.9674603,173.073242 24.7609194,173.020508 24.4620898,172.967773 L24.4620898,172.510742 L26.5802538,172.422852 L27.1075976,172.422852 L27.1075976,182.802734 Z M33.6666992,176.597656 L36.171582,176.597656 L36.171582,181.071289 C36.171582,181.756839 36.1979489,182.278319 36.2506835,182.635742 C36.3034182,182.993166 36.382519,183.262694 36.4879882,183.444336 C36.5934575,183.625977 36.7428701,183.77832 36.9362304,183.901367 C37.1295908,184.024415 37.3961897,184.085938 37.7360351,184.085938 C37.9586925,184.085938 38.1725575,184.041993 38.3776367,183.954102 C38.5827158,183.86621 38.8112292,183.712403 39.0631835,183.492676 C39.3151379,183.272948 39.4953119,183.054689 39.6037109,182.837891 C39.7121099,182.621093 39.7663085,182.369142 39.7663085,182.082031 L39.7663085,178.786133 C39.7663085,178.452147 39.7575196,178.200196 39.7399414,178.030273 C39.7223631,177.860351 39.6930666,177.724122 39.6520507,177.621582 C39.6110349,177.519042 39.5626955,177.435547 39.5070312,177.371094 C39.4513669,177.30664 39.3722661,177.248047 39.2697265,177.195312 C39.1671869,177.142578 39.0016613,177.086914 38.7731445,177.02832 L38.7731445,176.597656 L41.2780273,176.597656 L41.2780273,182.600586 C41.2780273,183.05176 41.2868163,183.376952 41.3043945,183.576172 C41.3219727,183.775392 41.3600583,183.933593 41.4186523,184.050781 C41.4772463,184.167969 41.5680657,184.263183 41.6911132,184.336426 C41.8141607,184.409668 42.0338851,184.478515 42.3502929,184.542969 L42.3502929,185 L40.3375976,185.087891 L39.8014648,185.087891 L39.8541992,183.646484 L39.7223632,183.611328 C39.2360327,184.138675 38.7716819,184.525389 38.3292968,184.771484 C37.8869118,185.017579 37.4430686,185.140625 36.9977539,185.140625 C36.4645481,185.140625 36.0250993,185.035157 35.6793945,184.824219 C35.3336896,184.61328 35.0758797,184.298342 34.905957,183.879395 C34.7360343,183.460447 34.6510742,182.870121 34.6510742,182.108398 L34.6510742,178.786133 C34.6510742,178.293943 34.6320314,177.955567 34.5939453,177.770996 C34.5558591,177.586425 34.4826177,177.439942 34.3742187,177.331543 C34.2658197,177.223144 34.0299822,177.122071 33.6666992,177.02832 L33.6666992,176.597656 Z M56.6086133,185 L53.1457226,185 L53.1457226,184.569336 C53.3742394,184.499023 53.5383003,184.4375 53.6379101,184.384766 C53.73752,184.332031 53.8210153,184.25879 53.8883984,184.165039 C53.9557816,184.071289 54.0085154,183.926271 54.0466015,183.72998 C54.0846877,183.53369 54.1037304,183.23633 54.1037304,182.837891 L54.1037304,180.535156 C54.1037304,180.124998 54.0920118,179.752931 54.0685742,179.418945 C54.0451366,179.084959 54.0055862,178.811036 53.9499218,178.597168 C53.8942575,178.3833 53.8268754,178.216309 53.7477734,178.096191 C53.6686715,177.976074 53.5749224,177.873536 53.4665234,177.788574 C53.3581244,177.703613 53.233614,177.636231 53.0929883,177.586426 C52.9523625,177.536621 52.7677941,177.511719 52.5392773,177.511719 C52.3107605,177.511719 52.0939658,177.557128 51.8888867,177.647949 C51.6838075,177.73877 51.4582239,177.895507 51.2121289,178.118164 C50.9660339,178.340821 50.7873247,178.560546 50.6759961,178.777344 C50.5646674,178.994142 50.5090039,179.243163 50.5090039,179.524414 L50.5090039,182.802734 C50.5090039,183.306643 50.5324411,183.656737 50.5793164,183.853027 C50.6261916,184.049317 50.7155462,184.19873 50.8473828,184.30127 C50.9792194,184.403809 51.1945493,184.493164 51.4933789,184.569336 L51.4933789,185 L48.0480664,185 L48.0480664,184.569336 C48.2765831,184.499023 48.4391792,184.4375 48.5358593,184.384766 C48.6325395,184.332031 48.7145699,184.25879 48.7819531,184.165039 C48.8493362,184.071289 48.9020701,183.927735 48.9401562,183.734375 C48.9782423,183.541015 48.9972851,183.23926 48.9972851,182.829102 L48.9972851,178.99707 C48.9972851,178.622068 48.9914258,178.320314 48.979707,178.091797 C48.9679882,177.86328 48.926973,177.680176 48.8566601,177.54248 C48.7863473,177.404784 48.6794148,177.302246 48.5358593,177.234863 C48.3923039,177.16748 48.1886927,177.110352 47.9250195,177.063477 L47.9250195,176.597656 L49.9816601,176.518555 L50.5177929,176.518555 L50.4211133,177.951172 L50.5441601,177.986328 C50.977756,177.546873 51.3278502,177.233399 51.5944531,177.045898 C51.861056,176.858397 52.1305845,176.713379 52.4030468,176.61084 C52.6755091,176.5083 52.9640805,176.457031 53.2687695,176.457031 C53.5851773,176.457031 53.8678894,176.493652 54.116914,176.566895 C54.3659387,176.640137 54.5856631,176.752929 54.7760937,176.905273 C54.9665244,177.057618 55.1232611,177.246581 55.2463086,177.472168 C55.3693561,177.697755 55.4616403,177.968748 55.523164,178.285156 C55.5846878,178.601564 55.6154492,179.002927 55.6154492,179.489258 L55.6154492,182.802734 C55.6154492,183.207033 55.6271678,183.499999 55.6506054,183.681641 C55.6740431,183.863282 55.7150583,184.003906 55.7736523,184.103516 C55.8322464,184.203125 55.9172064,184.286621 56.0285351,184.354004 C56.1398638,184.421387 56.3332213,184.493164 56.6086133,184.569336 L56.6086133,185 Z M69.7419336,175.244141 L66.9294336,185.061523 L65.5056055,185.061523 L62.9479883,175.516602 C62.842519,175.118162 62.7458403,174.79297 62.6579492,174.541016 C62.5700581,174.289061 62.4821684,174.091309 62.3942773,173.947754 C62.3063863,173.804199 62.2111724,173.695801 62.1086328,173.622559 C62.0060932,173.549316 61.8581455,173.486328 61.6647851,173.433594 L61.6647851,173.00293 L65.4265039,173.00293 L65.4265039,173.433594 C65.0632208,173.503907 64.8098054,173.609374 64.66625,173.75 C64.5226946,173.890626 64.450918,174.086913 64.450918,174.338867 C64.450918,174.543946 64.4772849,174.787108 64.5300195,175.068359 C64.5827542,175.349611 64.6559956,175.668944 64.7497461,176.026367 L66.5163476,182.969727 L69.3464258,173.00293 L70.8229883,173.00293 L73.1169336,182.978516 L75.1911523,176.272461 C75.4431067,175.458004 75.569082,174.877931 75.569082,174.532227 C75.569082,174.174803 75.4943757,173.916993 75.3449609,173.758789 C75.1955461,173.600585 74.94799,173.492188 74.6022851,173.433594 L74.6022851,173.00293 L78.0651758,173.00293 L78.0651758,173.433594 C77.8893936,173.492188 77.74877,173.558105 77.6433008,173.631348 C77.5378315,173.70459 77.4367583,173.804199 77.3400781,173.930176 C77.2433979,174.056153 77.1379302,174.250975 77.0236719,174.514648 C76.9094135,174.778322 76.776114,175.13281 76.6237695,175.578125 L73.4245508,185.061523 L72.1677148,185.061523 L69.7419336,175.244141 Z M89.1066992,183.505859 C88.7316974,183.898439 88.3874625,184.206054 88.0739844,184.428711 C87.7605063,184.651368 87.4162714,184.825683 87.0412695,184.95166 C86.6662677,185.077637 86.2531859,185.140625 85.8020117,185.140625 C84.5949744,185.140625 83.6838507,184.778812 83.0686133,184.055176 C82.4533758,183.331539 82.1457617,182.263679 82.1457617,180.851562 C82.1457617,179.978511 82.3024984,179.208011 82.6159766,178.540039 C82.9294547,177.872067 83.3762276,177.356447 83.9563086,176.993164 C84.5363896,176.629881 85.2043517,176.448242 85.9602149,176.448242 C86.5520147,176.448242 87.0559159,176.541991 87.4719336,176.729492 C87.8879513,176.916993 88.2204675,177.173338 88.4694922,177.498535 C88.7185169,177.823732 88.9118743,178.233884 89.0495703,178.729004 C89.1872663,179.224124 89.2649023,179.870113 89.2824805,180.666992 L83.7453711,180.666992 L83.7453711,180.825195 C83.7453711,181.516605 83.823007,182.098142 83.9782813,182.569824 C84.1335555,183.041506 84.3884357,183.410643 84.7429297,183.677246 C85.0974237,183.943849 85.5588448,184.077148 86.127207,184.077148 C86.6076782,184.077148 87.0398028,183.987794 87.4235938,183.809082 C87.8073847,183.63037 88.1897051,183.338869 88.5705664,182.93457 L89.1066992,183.505859 Z M87.6301367,179.9375 C87.5949803,179.304684 87.5158795,178.7876 87.392832,178.38623 C87.2697846,177.984861 87.0852161,177.677247 86.8391211,177.463379 C86.5930261,177.249511 86.2707637,177.142578 85.8723242,177.142578 C85.2688056,177.142578 84.7868768,177.384275 84.4265234,177.867676 C84.0661701,178.351077 83.8537699,179.041011 83.7893164,179.9375 L87.6301367,179.9375 Z M103.655059,185 L100.192168,185 L100.192168,184.569336 C100.420685,184.499023 100.584746,184.4375 100.684355,184.384766 C100.783965,184.332031 100.867461,184.25879 100.934844,184.165039 C101.002227,184.071289 101.054961,183.926271 101.093047,183.72998 C101.131133,183.53369 101.150176,183.23633 101.150176,182.837891 L101.150176,180.535156 C101.150176,180.124998 101.138457,179.752931 101.11502,179.418945 C101.091582,179.084959 101.052032,178.811036 100.996367,178.597168 C100.940703,178.3833 100.873321,178.216309 100.794219,178.096191 C100.715117,177.976074 100.621368,177.873536 100.512969,177.788574 C100.40457,177.703613 100.280059,177.636231 100.139434,177.586426 C99.9988079,177.536621 99.8142395,177.511719 99.5857227,177.511719 C99.3572059,177.511719 99.1404112,177.557128 98.9353321,177.647949 C98.7302529,177.73877 98.5046692,177.895507 98.2585742,178.118164 C98.0124793,178.340821 97.8337701,178.560546 97.7224414,178.777344 C97.6111128,178.994142 97.5554492,179.243163 97.5554492,179.524414 L97.5554492,182.802734 C97.5554492,183.306643 97.5788865,183.656737 97.6257617,183.853027 C97.672637,184.049317 97.7619916,184.19873 97.8938282,184.30127 C98.0256648,184.403809 98.2409946,184.493164 98.5398242,184.569336 L98.5398242,185 L95.0945117,185 L95.0945117,184.569336 C95.3230285,184.499023 95.4856245,184.4375 95.5823047,184.384766 C95.6789849,184.332031 95.7610153,184.25879 95.8283985,184.165039 C95.8957816,184.071289 95.9485155,183.927735 95.9866016,183.734375 C96.0246877,183.541015 96.0437305,183.23926 96.0437305,182.829102 L96.0437305,178.99707 C96.0437305,178.622068 96.0378712,178.320314 96.0261524,178.091797 C96.0144336,177.86328 95.9734183,177.680176 95.9031055,177.54248 C95.8327926,177.404784 95.7258601,177.302246 95.5823047,177.234863 C95.4387493,177.16748 95.2351381,177.110352 94.9714649,177.063477 L94.9714649,176.597656 L97.0281055,176.518555 L97.5642383,176.518555 L97.4675586,177.951172 L97.5906055,177.986328 C98.0242014,177.546873 98.3742956,177.233399 98.6408985,177.045898 C98.9075014,176.858397 99.1770299,176.713379 99.4494922,176.61084 C99.7219545,176.5083 100.010526,176.457031 100.315215,176.457031 C100.631623,176.457031 100.914335,176.493652 101.163359,176.566895 C101.412384,176.640137 101.632108,176.752929 101.822539,176.905273 C102.01297,177.057618 102.169706,177.246581 102.292754,177.472168 C102.415801,177.697755 102.508086,177.968748 102.569609,178.285156 C102.631133,178.601564 102.661895,179.002927 102.661895,179.489258 L102.661895,182.802734 C102.661895,183.207033 102.673613,183.499999 102.697051,183.681641 C102.720488,183.863282 102.761504,184.003906 102.820098,184.103516 C102.878692,184.203125 102.963652,184.286621 103.07498,184.354004 C103.186309,184.421387 103.379667,184.493164 103.655059,184.569336 L103.655059,185 Z M117.254199,177.485352 L115.628223,177.423828 L115.549121,177.520508 C115.730763,177.702149 115.874316,177.949705 115.979785,178.263184 C116.085254,178.576662 116.137988,178.915037 116.137988,179.27832 C116.137988,180.233403 115.843558,180.970212 115.254688,181.48877 C114.665817,182.007327 113.8294,182.266602 112.74541,182.266602 C112.25908,182.266602 111.840139,182.205079 111.488574,182.082031 C111.04326,182.421877 110.820606,182.755858 110.820606,183.083984 C110.820606,183.300782 110.863086,183.464843 110.948047,183.576172 C111.033008,183.687501 111.173632,183.766601 111.369922,183.813477 C111.566212,183.860352 111.863572,183.883789 112.262012,183.883789 L114.371387,183.883789 C114.992484,183.883789 115.499314,183.980468 115.891895,184.173828 C116.284475,184.367188 116.564257,184.626463 116.73125,184.95166 C116.898243,185.276857 116.981738,185.656248 116.981738,186.089844 C116.981738,186.640628 116.823537,187.131346 116.507129,187.562012 C116.190721,187.992678 115.733694,188.328124 115.136035,188.568359 C114.538376,188.808595 113.841117,188.928711 113.044238,188.928711 C112.452438,188.928711 111.911917,188.893555 111.422656,188.823242 C110.933396,188.752929 110.514455,188.634278 110.16582,188.467285 C109.817186,188.300292 109.547657,188.080568 109.357227,187.808105 C109.166796,187.535643 109.071582,187.194338 109.071582,186.78418 C109.071582,186.415037 109.194628,186.079591 109.440723,185.777832 C109.686818,185.476073 110.035447,185.210939 110.486621,184.982422 C110.211229,184.871093 109.994434,184.707032 109.836231,184.490234 C109.678027,184.273436 109.598926,184.018556 109.598926,183.725586 C109.598926,183.3916 109.692675,183.085451 109.880176,182.807129 C110.067677,182.528807 110.398728,182.210939 110.87334,181.853516 C110.451463,181.607421 110.130665,181.27344 109.910938,180.851562 C109.69121,180.429685 109.581348,179.949221 109.581348,179.410156 C109.581348,178.906247 109.664843,178.468264 109.831836,178.096191 C109.998829,177.724119 110.230272,177.416505 110.526172,177.17334 C110.822072,176.930175 111.172166,176.748536 111.576465,176.628418 C111.980764,176.5083 112.417283,176.448242 112.886035,176.448242 C113.307912,176.448242 113.726853,176.498046 114.142871,176.597656 L117.254199,176.597656 L117.254199,177.485352 Z M111.15459,179.269531 C111.15459,180.001957 111.304002,180.567381 111.602832,180.96582 C111.901662,181.36426 112.332321,181.563477 112.894824,181.563477 C113.193654,181.563477 113.448534,181.506348 113.659473,181.39209 C113.870411,181.277831 114.041796,181.121095 114.173633,180.921875 C114.305469,180.722655 114.402148,180.492677 114.463672,180.231934 C114.525196,179.97119 114.555957,179.697267 114.555957,179.410156 C114.555957,178.894529 114.482716,178.463869 114.336231,178.118164 C114.189745,177.772459 113.990529,177.519044 113.738574,177.35791 C113.48662,177.196777 113.196584,177.116211 112.868457,177.116211 C112.311814,177.116211 111.887013,177.300779 111.594043,177.669922 C111.301073,178.039064 111.15459,178.572262 111.15459,179.269531 L111.15459,179.269531 Z M111.374316,185.140625 C111.075487,185.363282 110.851368,185.59912 110.701953,185.848145 C110.552538,186.097169 110.477832,186.379881 110.477832,186.696289 C110.477832,187.223635 110.687303,187.611815 111.10625,187.86084 C111.525197,188.109865 112.165328,188.234375 113.02666,188.234375 C113.554007,188.234375 114.006639,188.164063 114.38457,188.023438 C114.762502,187.882812 115.051073,187.680665 115.250293,187.416992 C115.449513,187.153319 115.549121,186.845705 115.549121,186.494141 C115.549121,186.330077 115.528614,186.170411 115.487598,186.015137 C115.446582,185.859863 115.368946,185.720704 115.254688,185.597656 C115.140429,185.474609 114.977833,185.376465 114.766895,185.303223 C114.555956,185.22998 114.280568,185.193359 113.940723,185.193359 L112.631152,185.193359 C112.156541,185.193359 111.7376,185.175781 111.374316,185.140625 L111.374316,185.140625 Z M124.48127,172.422852 C124.551582,172.616212 124.605781,172.827147 124.643867,173.055664 C124.681953,173.284181 124.700996,173.492187 124.700996,173.679688 C124.700996,174.066408 124.642403,174.409178 124.525215,174.708008 C124.408027,175.006837 124.221994,175.310057 123.967109,175.617676 C123.712225,175.925295 123.324046,176.307615 122.802559,176.764648 L122.266426,176.237305 C122.553537,175.8916 122.764472,175.541506 122.899238,175.187012 C123.034005,174.832518 123.101387,174.400393 123.101387,173.890625 C123.101387,173.714843 123.092598,173.527345 123.07502,173.328125 C123.057441,173.128905 123.013497,172.82715 122.943184,172.422852 L124.48127,172.422852 Z M136.595059,178.522461 L135.751309,178.522461 C135.622402,178.170897 135.47006,177.894044 135.294277,177.691895 C135.118495,177.489745 134.919279,177.347657 134.696621,177.265625 C134.473964,177.183593 134.201506,177.142578 133.879238,177.142578 C133.410486,177.142578 133.036955,177.25244 132.758633,177.472168 C132.480311,177.691896 132.341152,177.992186 132.341152,178.373047 C132.341152,178.642579 132.396816,178.865233 132.508145,179.041016 C132.619473,179.216798 132.792323,179.380859 133.026699,179.533203 C133.261075,179.685548 133.674157,179.887694 134.265957,180.139648 C134.863616,180.397462 135.325038,180.634765 135.650234,180.851562 C135.975431,181.06836 136.230312,181.320311 136.414883,181.607422 C136.599454,181.894533 136.691738,182.237303 136.691738,182.635742 C136.691738,183.098635 136.612638,183.48828 136.454434,183.804688 C136.29623,184.121095 136.073576,184.378905 135.786465,184.578125 C135.499354,184.777345 135.158049,184.920898 134.762539,185.008789 C134.367029,185.09668 133.934905,185.140625 133.466152,185.140625 C132.973962,185.140625 132.496428,185.104004 132.033535,185.030762 C131.570642,184.957519 131.119475,184.862305 130.68002,184.745117 L130.68002,182.908203 L131.541348,182.908203 C131.699552,183.447268 131.933924,183.838378 132.244473,184.081543 C132.555021,184.324708 132.982751,184.446289 133.527676,184.446289 C133.738614,184.446289 133.945155,184.424317 134.147305,184.380371 C134.349454,184.336426 134.529628,184.263184 134.687832,184.160645 C134.846036,184.058105 134.972011,183.918946 135.065762,183.743164 C135.159512,183.567382 135.206387,183.347658 135.206387,183.083984 C135.206387,182.785155 135.147794,182.541993 135.030606,182.354492 C134.913417,182.166991 134.731779,181.995606 134.485684,181.840332 C134.239589,181.685058 133.805999,181.475587 133.184902,181.211914 C132.651697,180.989257 132.223967,180.772462 131.901699,180.561523 C131.579432,180.350585 131.326017,180.101564 131.141445,179.814453 C130.956874,179.527342 130.86459,179.187502 130.86459,178.794922 C130.86459,178.314451 130.99496,177.896974 131.255703,177.54248 C131.516447,177.187987 131.892908,176.916993 132.385098,176.729492 C132.877288,176.541991 133.45443,176.448242 134.116543,176.448242 C134.503264,176.448242 134.876795,176.467285 135.237149,176.505371 C135.597502,176.543457 136.050134,176.618164 136.595059,176.729492 L136.595059,178.522461 Z M67.9997656,208.776367 C67.9997656,209.122072 68.0188084,209.39746 68.0568945,209.602539 C68.0949807,209.807618 68.1535738,209.970214 68.2326758,210.090332 C68.3117777,210.21045 68.4187103,210.304199 68.5534766,210.371582 C68.6882429,210.438965 68.8991783,210.504882 69.1862891,210.569336 L69.1862891,211 L65.3278906,211 L65.3278906,210.569336 C65.6911737,210.475585 65.9343353,210.371583 66.0573828,210.257324 C66.1804303,210.143066 66.2609959,209.98047 66.299082,209.769531 C66.3371682,209.558593 66.3562109,209.23633 66.3562109,208.802734 L66.3562109,201.200195 C66.3562109,200.795896 66.3415627,200.501466 66.3122656,200.316895 C66.2829686,200.132323 66.2346293,199.98877 66.1672461,199.88623 C66.099863,199.783691 66.0105084,199.70166 65.8991797,199.640137 C65.787851,199.578613 65.5974232,199.509766 65.3278906,199.433594 L65.3278906,199.00293 L69.6872656,199.00293 C71.0583662,199.00293 72.0793521,199.265134 72.7502539,199.789551 C73.4211557,200.313967 73.7566016,201.112299 73.7566016,202.18457 C73.7566016,202.793948 73.6511339,203.341794 73.4401953,203.828125 C73.2292568,204.314456 72.9304316,204.712889 72.5437109,205.023438 C72.1569903,205.333986 71.6999636,205.55664 71.1726172,205.691406 C70.6452708,205.826173 70.0915654,205.893555 69.5114844,205.893555 C68.8610905,205.893555 68.3571893,205.881836 67.9997656,205.858398 L67.9997656,208.776367 Z M67.9997656,205.128906 L69.0192969,205.128906 C69.6814096,205.128906 70.2277908,205.042481 70.658457,204.869629 C71.0891233,204.696776 71.4187098,204.40967 71.6472266,204.008301 C71.8757433,203.606932 71.99,203.075199 71.99,202.413086 C71.99,201.909177 71.9226179,201.488771 71.7878516,201.151855 C71.6530853,200.81494 71.467052,200.543946 71.2297461,200.338867 C70.9924402,200.133788 70.7097282,199.98877 70.3816016,199.903809 C70.0534749,199.818847 69.6960566,199.776367 69.3093359,199.776367 C68.7292549,199.776367 68.2927358,199.788086 67.9997656,199.811523 L67.9997656,205.128906 Z M83.0578907,211.140625 C81.8391346,211.140625 80.9089681,210.781742 80.2673633,210.063965 C79.6257585,209.346188 79.304961,208.284187 79.304961,206.87793 C79.304961,205.911128 79.4734163,205.093753 79.8103321,204.425781 C80.1472478,203.757809 80.608669,203.261232 81.1946094,202.936035 C81.7805498,202.610838 82.4485119,202.448242 83.1985157,202.448242 C84.4524282,202.448242 85.4016374,202.812985 86.0461719,203.54248 C86.6907064,204.271976 87.0129688,205.319329 87.0129688,206.68457 C87.0129688,207.657231 86.8518376,208.477536 86.5295703,209.145508 C86.2073031,209.81348 85.7502764,210.312987 85.1584766,210.644043 C84.5666768,210.975099 83.8664884,211.140625 83.0578907,211.140625 L83.0578907,211.140625 Z M80.9660938,206.693359 C80.9660938,207.900397 81.1579864,208.827633 81.5417774,209.475098 C81.9255684,210.122562 82.4748793,210.446289 83.1897266,210.446289 C83.5823067,210.446289 83.9162877,210.351075 84.1916797,210.160645 C84.4670717,209.970214 84.6911906,209.713869 84.864043,209.391602 C85.0368954,209.069334 85.1614059,208.695803 85.2375782,208.270996 C85.3137504,207.846189 85.351836,207.402346 85.351836,206.939453 C85.351836,206.078121 85.2566221,205.363284 85.0661914,204.794922 C84.8757608,204.22656 84.616486,203.809083 84.2883594,203.54248 C83.9602328,203.275878 83.5852365,203.142578 83.1633594,203.142578 C82.4543715,203.142578 81.9109199,203.450192 81.5329883,204.06543 C81.1550567,204.680667 80.9660938,205.556635 80.9660938,206.693359 L80.9660938,206.693359 Z M95.3914063,204.056641 L95.5144532,204.083008 C95.8367204,203.690428 96.1355455,203.381349 96.4109375,203.155762 C96.6863295,202.930175 96.9836899,202.75586 97.3030274,202.632812 C97.6223649,202.509765 97.9841777,202.448242 98.3884766,202.448242 C98.7283221,202.448242 99.0359362,202.46582 99.3113282,202.500977 L99.3113282,204.522461 L98.3181641,204.522461 C98.1775384,204.206053 98.0281258,203.976075 97.8699219,203.83252 C97.711718,203.688964 97.4949233,203.617188 97.2195313,203.617188 C97.0085927,203.617188 96.7991222,203.67871 96.5911133,203.801758 C96.3831045,203.924805 96.1824229,204.103514 95.9890625,204.337891 C95.7957022,204.572267 95.6624028,204.791991 95.5891602,204.99707 C95.5159177,205.202149 95.4792969,205.445311 95.4792969,205.726562 L95.4792969,208.802734 C95.4792969,209.33594 95.5115232,209.703612 95.5759766,209.905762 C95.6404301,210.107911 95.7473626,210.255859 95.8967774,210.349609 C96.0461922,210.44336 96.2703111,210.516601 96.5691407,210.569336 L96.5691407,211 L93.0271485,211 L93.0271485,210.569336 C93.2498058,210.499023 93.4094722,210.4375 93.5061524,210.384766 C93.6028326,210.332031 93.6863278,210.25879 93.7566407,210.165039 C93.8269535,210.071289 93.8796874,209.927735 93.9148438,209.734375 C93.9500002,209.541015 93.9675782,209.23926 93.9675782,208.829102 L93.9675782,204.99707 C93.9675782,204.622068 93.9617189,204.320314 93.95,204.091797 C93.9382812,203.86328 93.897266,203.680176 93.8269532,203.54248 C93.7566403,203.404784 93.6497078,203.302246 93.5061524,203.234863 C93.362597,203.16748 93.1589857,203.110352 92.8953125,203.063477 L92.8953125,202.606445 L94.9519532,202.518555 L95.488086,202.518555 L95.3914063,204.056641 Z M104.165352,203.037109 C104.458322,202.990234 104.695624,202.908204 104.877266,202.791016 C105.058907,202.673828 105.200996,202.52295 105.303535,202.338379 C105.406075,202.153808 105.48664,201.922365 105.545234,201.644043 C105.603828,201.365721 105.665351,200.959964 105.729805,200.426758 L106.977852,200.426758 L106.977852,202.597656 L109.816719,202.597656 L109.816719,203.485352 L106.977852,203.485352 L106.977852,207.396484 C106.977852,207.964847 107.001289,208.417479 107.048164,208.754395 C107.095039,209.09131 107.182929,209.35498 107.311836,209.54541 C107.440743,209.735841 107.587226,209.87207 107.751289,209.954102 C107.915352,210.036133 108.126288,210.077148 108.384102,210.077148 C108.618478,210.077148 108.838202,210.028809 109.043281,209.932129 C109.24836,209.835449 109.450507,209.69629 109.649727,209.514648 L110.045234,209.989258 C109.629217,210.393557 109.235178,210.686523 108.863106,210.868164 C108.491033,211.049806 108.105783,211.140625 107.707344,211.140625 C106.951481,211.140625 106.388986,210.916506 106.019844,210.468262 C105.650701,210.020017 105.466133,209.318364 105.466133,208.363281 L105.466133,203.485352 L104.165352,203.485352 L104.165352,203.037109 Z M119.531094,203.485352 L117.430508,203.485352 L117.430508,208.802734 C117.430508,209.195314 117.449551,209.49121 117.487637,209.69043 C117.525723,209.889649 117.581386,210.040527 117.654629,210.143066 C117.727872,210.245606 117.82455,210.327636 117.944668,210.38916 C118.064786,210.450684 118.256678,210.510742 118.520352,210.569336 L118.520352,211 L114.925625,211 L114.925625,210.569336 C115.183439,210.499023 115.368007,210.431641 115.479336,210.367188 C115.590665,210.302734 115.67709,210.220704 115.738613,210.121094 C115.800137,210.021484 115.845547,209.877931 115.874844,209.69043 C115.904141,209.502929 115.918789,209.207033 115.918789,208.802734 L115.918789,203.485352 L114.855313,203.485352 L114.855313,203.037109 C115.07797,203.001953 115.225918,202.974121 115.29916,202.953613 C115.372403,202.933105 115.442715,202.902344 115.510098,202.861328 C115.577481,202.820312 115.636074,202.761719 115.685879,202.685547 C115.735684,202.609375 115.779629,202.496583 115.817715,202.347168 C115.855801,202.197753 115.886562,201.988283 115.91,201.71875 C115.962735,201.080075 116.078456,200.561525 116.257168,200.163086 C116.43588,199.764646 116.696619,199.424806 117.039395,199.143555 C117.38217,198.862303 117.748377,198.664551 118.138027,198.550293 C118.527678,198.436035 118.986169,198.378906 119.513516,198.378906 C119.976409,198.378906 120.368983,198.411132 120.69125,198.475586 L120.69125,200.066406 L119.821133,200.066406 C119.709804,199.720701 119.579434,199.476075 119.43002,199.33252 C119.280605,199.188964 119.071134,199.117188 118.801602,199.117188 C118.608241,199.117188 118.445645,199.143554 118.313809,199.196289 C118.181972,199.249024 118.060391,199.331054 117.949063,199.442383 C117.837734,199.553711 117.74252,199.703124 117.663418,199.890625 C117.584316,200.078126 117.525723,200.311034 117.487637,200.589355 C117.449551,200.867677 117.430508,201.22949 117.430508,201.674805 L117.430508,202.597656 L119.531094,202.597656 L119.531094,203.485352 Z M128.29625,211.140625 C127.077494,211.140625 126.147328,210.781742 125.505723,210.063965 C124.864118,209.346188 124.54332,208.284187 124.54332,206.87793 C124.54332,205.911128 124.711776,205.093753 125.048692,204.425781 C125.385607,203.757809 125.847028,203.261232 126.432969,202.936035 C127.018909,202.610838 127.686871,202.448242 128.436875,202.448242 C129.690788,202.448242 130.639997,202.812985 131.284531,203.54248 C131.929066,204.271976 132.251328,205.319329 132.251328,206.68457 C132.251328,207.657231 132.090197,208.477536 131.76793,209.145508 C131.445663,209.81348 130.988636,210.312987 130.396836,210.644043 C129.805036,210.975099 129.104848,211.140625 128.29625,211.140625 L128.29625,211.140625 Z M126.204453,206.693359 C126.204453,207.900397 126.396346,208.827633 126.780137,209.475098 C127.163928,210.122562 127.713239,210.446289 128.428086,210.446289 C128.820666,210.446289 129.154647,210.351075 129.430039,210.160645 C129.705431,209.970214 129.92955,209.713869 130.102402,209.391602 C130.275255,209.069334 130.399765,208.695803 130.475938,208.270996 C130.55211,207.846189 130.590195,207.402346 130.590195,206.939453 C130.590195,206.078121 130.494982,205.363284 130.304551,204.794922 C130.11412,204.22656 129.854845,203.809083 129.526719,203.54248 C129.198592,203.275878 128.823596,203.142578 128.401719,203.142578 C127.692731,203.142578 127.149279,203.450192 126.771348,204.06543 C126.393416,204.680667 126.204453,205.556635 126.204453,206.693359 L126.204453,206.693359 Z M140.603399,208.802734 C140.603399,209.306643 140.626836,209.656737 140.673711,209.853027 C140.720586,210.049317 140.809941,210.19873 140.941777,210.30127 C141.073614,210.403809 141.288944,210.493164 141.587774,210.569336 L141.587774,211 L138.098516,211 L138.098516,210.569336 C138.391486,210.493164 138.595097,210.414063 138.709356,210.332031 C138.823614,210.25 138.905644,210.151856 138.955449,210.037598 C139.005254,209.923339 139.04041,209.768067 139.060918,209.571777 C139.081426,209.375487 139.09168,209.119142 139.09168,208.802734 L139.09168,201.446289 C139.09168,200.883786 139.087285,200.491212 139.078496,200.268555 C139.069707,200.045897 139.04627,199.856934 139.008184,199.70166 C138.970098,199.546386 138.917364,199.424805 138.849981,199.336914 C138.782597,199.249023 138.691778,199.178711 138.57752,199.125977 C138.463261,199.073242 138.25672,199.020508 137.957891,198.967773 L137.957891,198.510742 L140.076055,198.422852 L140.603399,198.422852 L140.603399,208.802734 Z M149.88711,199.152344 L149.88711,200.857422 L148.269922,200.857422 L148.269922,199.152344 L149.88711,199.152344 Z M147.373438,210.569336 C147.601954,210.499023 147.76455,210.4375 147.861231,210.384766 C147.957911,210.332031 148.039941,210.25879 148.107324,210.165039 C148.174708,210.071289 148.227441,209.927735 148.265527,209.734375 C148.303614,209.541015 148.322656,209.23926 148.322656,208.829102 L148.322656,204.99707 C148.322656,204.622068 148.316797,204.320314 148.305078,204.091797 C148.293359,203.86328 148.252344,203.680176 148.182031,203.54248 C148.111719,203.404784 148.004786,203.302246 147.861231,203.234863 C147.717675,203.16748 147.514064,203.110352 147.250391,203.063477 L147.250391,202.597656 L149.298242,202.518555 L149.834375,202.518555 L149.834375,208.802734 C149.834375,209.306643 149.857812,209.656737 149.904688,209.853027 C149.951563,210.049317 150.040917,210.19873 150.172754,210.30127 C150.304591,210.403809 150.519921,210.493164 150.81875,210.569336 L150.81875,211 L147.373438,211 L147.373438,210.569336 Z M160.427656,211.140625 C159.2089,211.140625 158.278734,210.781742 157.637129,210.063965 C156.995524,209.346188 156.674727,208.284187 156.674727,206.87793 C156.674727,205.911128 156.843182,205.093753 157.180098,204.425781 C157.517014,203.757809 157.978435,203.261232 158.564375,202.936035 C159.150316,202.610838 159.818278,202.448242 160.568281,202.448242 C161.822194,202.448242 162.771403,202.812985 163.415938,203.54248 C164.060472,204.271976 164.382735,205.319329 164.382735,206.68457 C164.382735,207.657231 164.221603,208.477536 163.899336,209.145508 C163.577069,209.81348 163.120042,210.312987 162.528242,210.644043 C161.936443,210.975099 161.236254,211.140625 160.427656,211.140625 L160.427656,211.140625 Z M158.33586,206.693359 C158.33586,207.900397 158.527752,208.827633 158.911543,209.475098 C159.295334,210.122562 159.844645,210.446289 160.559492,210.446289 C160.952072,210.446289 161.286053,210.351075 161.561445,210.160645 C161.836837,209.970214 162.060956,209.713869 162.233809,209.391602 C162.406661,209.069334 162.531172,208.695803 162.607344,208.270996 C162.683516,207.846189 162.721602,207.402346 162.721602,206.939453 C162.721602,206.078121 162.626388,205.363284 162.435957,204.794922 C162.245527,204.22656 161.986252,203.809083 161.658125,203.54248 C161.329999,203.275878 160.955002,203.142578 160.533125,203.142578 C159.824137,203.142578 159.280686,203.450192 158.902754,204.06543 C158.524822,204.680667 158.33586,205.556635 158.33586,206.693359 L158.33586,206.693359 Z M92.7600391,236.266602 C92.8772272,236.782229 93.0354287,237.189452 93.2346485,237.488281 C93.4338682,237.787111 93.6916781,238.0083 94.008086,238.151855 C94.3244938,238.295411 94.7317163,238.367188 95.2297657,238.367188 C95.915316,238.367188 96.4411896,238.188478 96.8074024,237.831055 C97.1736151,237.473631 97.3567188,236.952152 97.3567188,236.266602 C97.3567188,235.827146 97.2805477,235.458009 97.1282032,235.15918 C96.9758586,234.86035 96.7268377,234.579103 96.3811328,234.31543 C96.035428,234.051756 95.5080895,233.744142 94.7991016,233.392578 C94.1135513,233.052733 93.5715645,232.720216 93.173125,232.39502 C92.7746855,232.069823 92.4773252,231.716799 92.2810352,231.335938 C92.0847451,230.955076 91.9866016,230.539065 91.9866016,230.087891 C91.9866016,229.431637 92.1404086,228.861819 92.4480274,228.378418 C92.7556461,227.895017 93.2068135,227.521486 93.801543,227.257812 C94.3962725,226.994139 95.0774181,226.862305 95.845,226.862305 C96.2903148,226.862305 96.725369,226.885742 97.1501758,226.932617 C97.5749826,226.979492 98.1067156,227.08496 98.7453907,227.249023 L98.7453907,229.62207 L97.8752735,229.62207 C97.7405072,229.106443 97.570587,228.70508 97.3655078,228.417969 C97.1604287,228.130858 96.9201967,227.930176 96.6448047,227.815918 C96.3694127,227.70166 96.0119944,227.644531 95.5725391,227.644531 C95.1916778,227.644531 94.8503726,227.714843 94.5486133,227.855469 C94.246854,227.996094 94.0080868,228.208495 93.8323047,228.492676 C93.6565226,228.776857 93.5686328,229.115232 93.5686328,229.507812 C93.5686328,229.92383 93.6433391,230.275389 93.7927539,230.5625 C93.9421687,230.849611 94.1750766,231.11621 94.4914844,231.362305 C94.8078922,231.6084 95.2766375,231.883788 95.8977344,232.188477 C96.6477382,232.563478 97.2292753,232.912108 97.6423633,233.234375 C98.0554513,233.556642 98.3777137,233.924314 98.6091602,234.337402 C98.8406067,234.75049 98.9563282,235.232419 98.9563282,235.783203 C98.9563282,236.398441 98.8596494,236.918455 98.6662891,237.343262 C98.4729287,237.768069 98.204865,238.113768 97.8620899,238.380371 C97.5193147,238.646974 97.1091626,238.840331 96.6316211,238.960449 C96.1540797,239.080567 95.6311357,239.140625 95.0627735,239.140625 C94.142847,239.140625 93.0823107,238.985353 91.8811328,238.674805 L91.8811328,236.266602 L92.7600391,236.266602 Z M107.422656,227.152344 L107.422656,228.857422 L105.805469,228.857422 L105.805469,227.152344 L107.422656,227.152344 Z M104.908984,238.569336 C105.137501,238.499023 105.300097,238.4375 105.396777,238.384766 C105.493458,238.332031 105.575488,238.25879 105.642871,238.165039 C105.710254,238.071289 105.762988,237.927735 105.801074,237.734375 C105.83916,237.541015 105.858203,237.23926 105.858203,236.829102 L105.858203,232.99707 C105.858203,232.622068 105.852344,232.320314 105.840625,232.091797 C105.828906,231.86328 105.787891,231.680176 105.717578,231.54248 C105.647265,231.404784 105.540333,231.302246 105.396777,231.234863 C105.253222,231.16748 105.049611,231.110352 104.785938,231.063477 L104.785938,230.597656 L106.833789,230.518555 L107.369922,230.518555 L107.369922,236.802734 C107.369922,237.306643 107.393359,237.656737 107.440234,237.853027 C107.48711,238.049317 107.576464,238.19873 107.708301,238.30127 C107.840137,238.403809 108.055467,238.493164 108.354297,238.569336 L108.354297,239 L104.908984,239 L104.908984,238.569336 Z M113.612617,231.037109 C113.905587,230.990234 114.14289,230.908204 114.324531,230.791016 C114.506173,230.673828 114.648261,230.52295 114.750801,230.338379 C114.85334,230.153808 114.933906,229.922365 114.9925,229.644043 C115.051094,229.365721 115.112617,228.959964 115.17707,228.426758 L116.425117,228.426758 L116.425117,230.597656 L119.263984,230.597656 L119.263984,231.485352 L116.425117,231.485352 L116.425117,235.396484 C116.425117,235.964847 116.448555,236.417479 116.49543,236.754395 C116.542305,237.09131 116.630195,237.35498 116.759102,237.54541 C116.888009,237.735841 117.034491,237.87207 117.198555,237.954102 C117.362618,238.036133 117.573553,238.077148 117.831367,238.077148 C118.065743,238.077148 118.285468,238.028809 118.490547,237.932129 C118.695626,237.835449 118.897773,237.69629 119.096992,237.514648 L119.4925,237.989258 C119.076482,238.393557 118.682443,238.686523 118.310371,238.868164 C117.938299,239.049806 117.553049,239.140625 117.154609,239.140625 C116.398746,239.140625 115.836252,238.916506 115.467109,238.468262 C115.097967,238.020017 114.913399,237.318364 114.913399,236.363281 L114.913399,231.485352 L113.612617,231.485352 L113.612617,231.037109 Z M131.325039,237.505859 C130.950037,237.898439 130.605802,238.206054 130.292324,238.428711 C129.978846,238.651368 129.634611,238.825683 129.259609,238.95166 C128.884608,239.077637 128.471526,239.140625 128.020352,239.140625 C126.813314,239.140625 125.902191,238.778812 125.286953,238.055176 C124.671716,237.331539 124.364102,236.263679 124.364102,234.851562 C124.364102,233.978511 124.520838,233.208011 124.834316,232.540039 C125.147795,231.872067 125.594567,231.356447 126.174649,230.993164 C126.75473,230.629881 127.422692,230.448242 128.178555,230.448242 C128.770355,230.448242 129.274256,230.541991 129.690274,230.729492 C130.106291,230.916993 130.438807,231.173338 130.687832,231.498535 C130.936857,231.823732 131.130214,232.233884 131.26791,232.729004 C131.405606,233.224124 131.483242,233.870113 131.50082,234.666992 L125.963711,234.666992 L125.963711,234.825195 C125.963711,235.516605 126.041347,236.098142 126.196621,236.569824 C126.351895,237.041506 126.606776,237.410643 126.96127,237.677246 C127.315764,237.943849 127.777185,238.077148 128.345547,238.077148 C128.826018,238.077148 129.258143,237.987794 129.641934,237.809082 C130.025725,237.63037 130.408045,237.338869 130.788906,236.93457 L131.325039,237.505859 Z M129.848477,233.9375 C129.81332,233.304684 129.734219,232.7876 129.611172,232.38623 C129.488124,231.984861 129.303556,231.677247 129.057461,231.463379 C128.811366,231.249511 128.489104,231.142578 128.090664,231.142578 C127.487146,231.142578 127.005217,231.384275 126.644863,231.867676 C126.28451,232.351077 126.07211,233.041011 126.007656,233.9375 L129.848477,233.9375 Z" id="YilunWeng’s" fill="#939393" sketch:type="MSShapeGroup"></path>
        </g>
    </g>
</svg>