<svg width="237" height="240" viewBox="0 0 237 240" xmlns="http://www.w3.org/2000/svg"><title>Slice 1</title><defs><linearGradient x1="50%" y1="100%" x2="50%" y2="0%" id="a"><stop stop-color="#EA693F" stop-opacity=".77" offset="0%"/><stop stop-color="#A8A697" offset="0%"/><stop stop-color="#FFF" offset="100%"/></linearGradient></defs><g fill="none" fill-rule="evenodd"><path d="M97.322 51.81c-9.763 9.764-9.763 25.593 0 35.356l16.26 16.26c.385.385.885.582 1.388.59.52.007 1.046-.188 1.447-.59l16.26-16.26c9.764-9.763 9.764-25.592 0-35.356-9.762-9.763-25.592-9.763-35.355 0z" fill="url(#a)" transform="rotate(90 115 74.252)"/><path d="M143.038 94.81c-9.763 9.764-9.763 25.593 0 35.356l16.26 16.26c.385.385.885.582 1.388.59.52.007 1.046-.188 1.447-.59l16.26-16.26c9.764-9.763 9.764-25.592 0-35.356-9.763-9.763-25.592-9.763-35.355 0z" fill="url(#a)"/><path d="M188.086 51.31c-9.763 9.764-9.763 25.593 0 35.356l16.26 16.26c.385.385 1.387 1.59 1.387 1.59s1.046-1.188 1.447-1.59l16.26-16.26c9.764-9.763 9.764-25.592 0-35.355-9.762-9.763-25.59-9.763-35.354 0z" fill="url(#a)" transform="rotate(-90 205.764 74.252)"/><path d="M143.038 8.31c-9.763 9.764-9.763 25.593 0 35.356l16.26 16.26c.385.385.885.582 1.388.59.52.007 1.046-.188 1.447-.59l16.26-16.26c9.764-9.763 9.764-25.592 0-35.356-9.763-9.763-25.592-9.763-35.355 0z" fill="url(#a)" transform="rotate(-180 160.716 30.752)"/><path d="M160.5 147.5v49.82" stroke="#979797" stroke-linecap="square"/><path d="M4.418 179.964l-2.426-4.51c-.293-.544-.515-.933-.668-1.168-.152-.234-.304-.42-.457-.554-.152-.134-.328-.234-.527-.298v-.43h3.744v.43c-.55.064-.826.3-.826.712 0 .17.04.36.12.57.078.212.22.51.425.897l1.758 3.35 1.732-3.06c.235-.416.4-.757.497-1.024.095-.267.144-.512.144-.734 0-.21-.063-.377-.19-.497-.125-.12-.31-.193-.557-.216v-.43h3.33v.43c-.24.087-.45.21-.632.364-.182.156-.366.365-.554.63-.186.262-.462.708-.825 1.335l-2.443 4.166v2.846c0 .334.017.604.052.81.036.204.094.368.176.49.082.124.19.22.325.29.135.07.346.14.633.203v.43H3.232v-.43c.28-.06.49-.122.624-.19.134-.067.243-.164.325-.29.083-.126.143-.29.18-.496.04-.205.058-.478.058-.818v-2.812zm13.626-6.812v1.705h-1.618v-1.705h1.618zM15.53 184.57c.228-.07.39-.132.488-.185.096-.053.178-.126.246-.22.067-.094.12-.237.158-.43.038-.194.057-.496.057-.906v-3.833c0-.375-.007-.677-.018-.905-.012-.23-.053-.412-.123-.55-.072-.137-.18-.24-.322-.307-.144-.068-.347-.125-.61-.172v-.465l2.047-.08h.536v6.285c0 .504.024.854.07 1.05.048.196.137.346.27.448.13.104.346.193.645.27v.43H15.53v-.43zm11.578-1.767c0 .504.023.854.07 1.05.047.196.136.346.268.448.132.104.347.193.646.27v.43h-3.49v-.43c.294-.077.497-.156.612-.238.114-.082.196-.18.246-.294.05-.115.085-.27.105-.466.02-.197.03-.453.03-.77v-7.356c0-.562-.004-.955-.012-1.177-.01-.224-.033-.413-.07-.568-.04-.156-.09-.277-.16-.365-.066-.088-.157-.158-.27-.21-.116-.054-.322-.106-.62-.16v-.456l2.117-.087h.528v10.38zm6.56-6.205h2.504v4.473c0 .687.026 1.208.08 1.566.05.357.13.627.236.808.105.182.255.334.448.457.194.124.46.186.8.186.223 0 .437-.044.642-.132.205-.088.433-.242.685-.46.252-.22.432-.44.54-.656.11-.217.163-.47.163-.756v-3.296c0-.334-.008-.586-.026-.756-.018-.17-.047-.306-.088-.408-.04-.103-.09-.186-.145-.25-.056-.065-.135-.124-.237-.177-.103-.052-.268-.108-.497-.167v-.43h2.505v6.003c0 .452.01.777.026.976.018.2.056.358.115.475.057.118.148.213.27.286.124.074.344.143.66.207V185l-2.012.088H39.8l.054-1.442-.132-.035c-.486.53-.95.915-1.393 1.16-.443.248-.887.37-1.332.37-.533 0-.973-.105-1.32-.316-.344-.21-.602-.526-.772-.945-.17-.42-.255-1.01-.255-1.772v-3.322c0-.492-.018-.83-.056-1.015-.038-.184-.11-.33-.22-.438-.108-.11-.344-.21-.707-.304v-.43zM56.607 185h-3.462v-.43c.228-.07.392-.132.492-.185.1-.053.183-.126.25-.22.068-.094.12-.24.16-.435.037-.196.056-.494.056-.892v-2.303c0-.41-.012-.782-.035-1.116-.025-.335-.064-.61-.12-.823-.056-.214-.123-.38-.202-.5-.08-.12-.173-.223-.28-.308-.11-.086-.234-.154-.375-.204-.14-.05-.325-.074-.554-.074-.23 0-.446.045-.65.136-.206.09-.432.248-.678.47-.246.223-.425.443-.536.66-.11.216-.167.465-.167.746v3.28c0 .503.022.853.07 1.05.046.195.136.345.267.447.132.104.348.193.646.27v.43h-3.445v-.43c.23-.07.39-.132.488-.185.097-.053.18-.126.246-.22.067-.094.12-.237.158-.43.038-.194.057-.496.057-.906v-3.833c0-.375-.006-.677-.017-.905-.012-.23-.053-.412-.123-.55-.07-.137-.178-.24-.32-.307-.145-.068-.348-.125-.612-.172v-.465l2.057-.08h.536l-.097 1.433.124.036c.434-.44.784-.753 1.05-.94.267-.188.537-.333.81-.435.272-.102.56-.153.865-.153.315 0 .598.037.847.11.25.073.47.186.66.338.19.153.346.342.47.567.122.226.215.497.276.813.062.317.092.718.092 1.204v3.313c0 .404.012.697.036.88.024.18.065.32.124.42.058.1.143.184.255.25.11.068.303.14.58.216v.43zm13.134-9.756l-2.813 9.818h-1.424l-2.558-9.545c-.105-.4-.202-.724-.29-.976-.088-.25-.176-.45-.264-.592-.088-.144-.183-.252-.285-.325-.104-.074-.252-.137-.445-.19v-.43h3.762v.43c-.364.07-.617.176-.76.317-.144.14-.216.337-.216.59 0 .204.027.447.08.728.053.282.126.6.22.958l1.766 6.944 2.83-9.967h1.477l2.294 9.976 2.074-6.708c.253-.814.38-1.394.38-1.74 0-.357-.076-.615-.225-.773-.15-.16-.397-.268-.743-.326v-.43h3.463v.43c-.176.058-.316.124-.422.197-.105.075-.206.174-.303.3s-.202.32-.316.585c-.115.263-.248.618-.4 1.063l-3.2 9.484H72.17l-2.426-9.818zm19.365 8.262c-.375.392-.72.7-1.033.923-.313.22-.658.396-1.033.522-.374.126-.787.19-1.238.19-1.207 0-2.118-.363-2.733-1.087-.617-.723-.924-1.79-.924-3.203 0-.873.156-1.644.47-2.312.313-.668.76-1.184 1.34-1.547.58-.363 1.248-.545 2.004-.545.592 0 1.096.094 1.512.28.416.19.748.445.997.77.25.326.442.736.58 1.23.137.496.215 1.142.232 1.94h-5.537v.157c0 .692.078 1.273.233 1.745.156.472.41.84.765 1.107.354.267.816.4 1.384.4.48 0 .913-.09 1.297-.268.383-.18.766-.47 1.147-.875l.537.57zm-1.477-3.57c-.035-.63-.114-1.148-.237-1.55-.123-.4-.308-.71-.554-.923-.247-.213-.57-.32-.968-.32-.603 0-1.085.24-1.445.725-.36.483-.573 1.173-.638 2.07h3.84zM103.655 185h-3.463v-.43c.23-.07.393-.132.492-.185.1-.053.183-.126.25-.22.068-.094.12-.24.16-.435.037-.196.056-.494.056-.892v-2.303c0-.41-.012-.782-.035-1.116-.023-.335-.063-.61-.12-.823-.054-.214-.122-.38-.2-.5-.08-.12-.174-.223-.282-.308-.108-.086-.233-.154-.374-.204-.14-.05-.326-.074-.554-.074-.23 0-.446.045-.65.136-.206.09-.43.248-.677.47-.248.223-.426.443-.538.66-.11.216-.167.465-.167.746v3.28c0 .503.024.853.07 1.05.048.195.137.345.27.447.13.104.346.193.645.27v.43h-3.445v-.43c.228-.07.39-.132.487-.185.097-.053.18-.126.246-.22.068-.094.12-.237.16-.43.037-.194.056-.496.056-.906v-3.833c0-.375-.006-.677-.018-.905-.012-.23-.053-.412-.123-.55-.07-.137-.177-.24-.32-.307-.144-.068-.348-.125-.612-.172v-.465l2.058-.08h.536l-.096 1.433.123.036c.434-.44.784-.753 1.05-.94.268-.188.537-.333.81-.435.272-.102.56-.153.865-.153.317 0 .6.037.848.11.25.073.47.186.66.338.19.153.347.342.47.567.123.226.215.497.277.813.06.317.092.718.092 1.204v3.313c0 .404.012.697.035.88.023.18.065.32.123.42.06.1.144.184.255.25.11.068.305.14.58.216v.43zm13.6-7.515l-1.627-.06-.08.096c.183.182.326.43.432.743.105.314.158.652.158 1.015 0 .955-.294 1.692-.883 2.21-.59.52-1.426.78-2.51.78-.486 0-.905-.063-1.256-.186-.447.34-.67.674-.67 1.002 0 .217.043.38.128.492.085.112.226.19.422.237.196.047.494.07.892.07h2.11c.62 0 1.127.097 1.52.29.392.194.672.453.84.78.166.324.25.703.25 1.137 0 .55-.158 1.04-.475 1.472-.316.43-.773.766-1.37 1.006-.6.24-1.296.36-2.093.36-.592 0-1.132-.034-1.62-.105-.49-.07-.91-.19-1.258-.356-.35-.167-.618-.386-.81-.66-.19-.27-.284-.613-.284-1.023 0-.37.123-.704.37-1.006.245-.302.593-.567 1.045-.796-.276-.11-.493-.275-.65-.492-.16-.217-.238-.47-.238-.764 0-.334.093-.64.28-.92.188-.277.52-.595.993-.952-.422-.247-.742-.58-.962-1.002-.22-.422-.33-.903-.33-1.442 0-.504.085-.942.252-1.314.167-.372.398-.68.694-.923.296-.243.646-.424 1.05-.545.405-.12.84-.18 1.31-.18.422 0 .84.05 1.257.15h3.11v.887zm-6.1 1.785c0 .732.15 1.297.448 1.696.3.398.73.597 1.292.597.3 0 .554-.057.764-.17.21-.115.382-.272.514-.47.13-.2.228-.43.29-.69.06-.262.092-.536.092-.823 0-.515-.073-.946-.22-1.292-.146-.346-.345-.6-.597-.76-.253-.16-.543-.242-.872-.242-.556 0-.98.185-1.274.554-.293.37-.44.902-.44 1.6zm.22 5.87c-.3.223-.524.46-.673.708-.15.25-.224.532-.224.848 0 .528.21.916.628 1.165.42.25 1.06.374 1.92.374.528 0 .98-.07 1.36-.21.377-.14.665-.343.864-.607.2-.264.3-.57.3-.923 0-.164-.02-.324-.062-.48-.04-.154-.12-.293-.233-.416-.115-.123-.277-.222-.488-.295-.21-.073-.486-.11-.826-.11h-1.31c-.473 0-.892-.017-1.256-.052zm13.106-12.717c.072.193.126.404.164.633.038.228.057.436.057.624 0 .386-.058.73-.175 1.028-.117.3-.303.602-.558.91-.255.307-.643.69-1.164 1.147l-.537-.528c.288-.345.498-.695.633-1.05.134-.354.2-.787.2-1.296 0-.175-.007-.363-.025-.562-.018-.2-.062-.5-.132-.905h1.538zm12.115 6.1h-.844c-.128-.352-.28-.63-.456-.83-.176-.203-.375-.345-.597-.427-.223-.082-.495-.123-.818-.123-.47 0-.843.11-1.12.33-.28.22-.42.52-.42.9 0 .27.057.492.168.668.11.177.284.34.52.493.233.153.646.355 1.238.607.598.257 1.06.495 1.384.712.325.216.58.468.765.755.184.288.277.63.277 1.03 0 .462-.08.85-.238 1.168-.158.316-.38.574-.668.773-.287.2-.628.343-1.023.43-.396.09-.828.133-1.297.133-.492 0-.97-.036-1.432-.11-.463-.072-.915-.168-1.354-.285v-1.837h.86c.16.54.394.93.704 1.174.31.243.74.364 1.284.364.21 0 .417-.022.62-.066.2-.044.382-.117.54-.22.158-.102.284-.24.378-.417.094-.176.14-.395.14-.66 0-.298-.058-.54-.175-.73-.117-.186-.298-.357-.544-.513-.246-.155-.68-.364-1.3-.628-.534-.223-.962-.44-1.284-.65-.323-.21-.576-.46-.76-.748-.185-.287-.277-.626-.277-1.02 0-.48.13-.897.39-1.252.26-.354.638-.625 1.13-.813.492-.188 1.07-.282 1.732-.282.386 0 .76.02 1.12.057.36.038.813.113 1.358.224v1.792zM68 208.775c0 .346.02.62.057.827.038.205.097.367.176.487.08.12.186.214.32.282.135.067.346.133.633.197v.43h-3.858v-.43c.363-.094.606-.198.73-.313.122-.114.203-.277.24-.487.04-.21.058-.534.058-.967V201.2c0-.404-.014-.7-.044-.883-.03-.185-.077-.328-.145-.43-.067-.103-.156-.185-.268-.247-.112-.06-.303-.13-.572-.206v-.43h4.36c1.37 0 2.39.26 3.062.786.67.524 1.007 1.322 1.007 2.395 0 .61-.106 1.157-.317 1.643-.21.486-.51.885-.896 1.195-.387.31-.844.534-1.37.668-.53.136-1.082.204-1.663.204-.65 0-1.153-.012-1.51-.036v2.918zm0-3.647h1.02c.66 0 1.208-.088 1.638-.26.43-.173.76-.46.99-.862.228-.4.342-.933.342-1.595 0-.504-.067-.924-.202-1.26-.135-.338-.32-.61-.558-.814-.238-.206-.52-.35-.848-.436-.33-.085-.686-.128-1.073-.128-.58 0-1.017.012-1.31.036v5.317zm15.058 6.01c-1.22 0-2.15-.358-2.79-1.076-.642-.718-.963-1.78-.963-3.186 0-.967.168-1.784.505-2.452.337-.668.8-1.165 1.385-1.49.586-.325 1.254-.488 2.004-.488 1.252 0 2.202.365 2.846 1.094.645.73.967 1.777.967 3.143 0 .972-.16 1.793-.483 2.46-.323.668-.78 1.168-1.372 1.5-.59.33-1.292.496-2.1.496zm-2.092-4.447c0 1.207.192 2.135.576 2.782.384.648.933.97 1.648.97.392 0 .726-.094 1.002-.284.275-.19.5-.446.672-.768.173-.323.297-.696.374-1.12.076-.426.114-.87.114-1.333 0-.862-.095-1.577-.286-2.145-.19-.568-.45-.986-.778-1.253-.328-.266-.703-.4-1.125-.4-.71 0-1.252.308-1.63.923-.378.616-.567 1.492-.567 2.628zm14.425-2.636l.124.026c.323-.393.622-.702.897-.927.276-.226.574-.4.893-.523.32-.123.68-.185 1.085-.185.34 0 .648.018.923.053v2.022h-.992c-.14-.316-.29-.546-.448-.69-.158-.143-.375-.215-.65-.215-.21 0-.42.062-.63.185-.207.123-.408.302-.6.536-.194.234-.328.454-.4.66-.074.204-.11.447-.11.73v3.075c0 .533.032.9.096 1.103.064.202.17.35.32.444.15.093.374.167.673.22v.43h-3.543v-.43c.223-.07.382-.132.48-.185.096-.053.18-.126.25-.22s.123-.237.158-.43c.035-.194.053-.496.053-.906v-3.833c0-.375-.006-.677-.018-.905-.012-.23-.053-.412-.123-.55-.07-.137-.177-.24-.32-.307-.144-.068-.348-.125-.612-.172v-.457l2.057-.087h.536l-.097 1.537zm8.775-1.02c.293-.047.53-.13.712-.246.182-.116.324-.267.427-.452.102-.184.183-.416.24-.694.06-.278.12-.684.186-1.217h1.248v2.17h2.84v.888h-2.84v3.91c0 .57.023 1.022.07 1.36.047.336.135.6.264.79.13.19.275.327.44.41.163.08.374.122.632.122.234 0 .454-.048.66-.145.204-.097.407-.236.606-.417l.395.474c-.416.404-.81.697-1.182.878-.372.182-.757.273-1.156.273-.756 0-1.318-.223-1.687-.672-.37-.448-.554-1.15-.554-2.105v-4.878h-1.3v-.448zm15.366.448h-2.1v5.318c0 .392.02.688.058.887.038.2.093.35.167.453.073.103.17.185.29.246.12.06.312.12.575.18v.43h-3.594v-.43c.257-.07.442-.138.553-.203.11-.064.197-.146.26-.246.06-.1.106-.242.135-.43.03-.187.044-.483.044-.887v-5.318h-1.065v-.448c.223-.035.37-.063.444-.083.072-.02.143-.052.21-.093.067-.04.126-.098.176-.174.05-.077.094-.19.132-.34.038-.148.07-.358.092-.627.053-.64.168-1.158.347-1.557.18-.398.44-.738.782-1.02.342-.28.708-.478 1.098-.593.39-.114.848-.17 1.376-.17.462 0 .855.03 1.177.096v1.59h-.87c-.11-.345-.24-.59-.39-.733-.15-.144-.36-.216-.628-.216-.194 0-.356.027-.488.08-.132.052-.254.134-.365.245-.112.112-.207.26-.287.45-.08.186-.137.42-.175.697-.038.278-.057.64-.057 1.085v.923h2.1v.887zm8.766 7.656c-1.22 0-2.15-.358-2.79-1.076-.642-.718-.963-1.78-.963-3.186 0-.967.17-1.784.506-2.452.336-.668.797-1.165 1.383-1.49.586-.325 1.254-.488 2.004-.488 1.254 0 2.203.365 2.848 1.094.644.73.966 1.777.966 3.143 0 .972-.16 1.793-.482 2.46-.322.668-.78 1.168-1.37 1.5-.593.33-1.293.496-2.102.496zm-2.092-4.447c0 1.207.192 2.135.576 2.782.384.648.933.97 1.648.97.393 0 .727-.094 1.002-.284.275-.19.5-.446.672-.768.173-.323.298-.696.374-1.12.076-.426.114-.87.114-1.333 0-.862-.095-1.577-.285-2.145-.19-.568-.45-.986-.778-1.253-.328-.266-.703-.4-1.125-.4-.71 0-1.253.308-1.63.923-.38.616-.568 1.492-.568 2.628zm14.4 2.11c0 .504.023.854.07 1.05.047.196.136.346.268.448.132.104.347.193.646.27v.43h-3.49v-.43c.293-.077.497-.156.61-.238.116-.082.198-.18.247-.294.05-.115.085-.27.106-.466.02-.197.032-.453.032-.77v-7.356c0-.562-.005-.955-.014-1.177-.008-.224-.032-.413-.07-.568-.038-.156-.09-.277-.158-.365-.067-.088-.158-.158-.272-.21-.115-.054-.32-.106-.62-.16v-.456l2.118-.087h.527v10.38zm9.283-9.65v1.704h-1.617v-1.705h1.617zm-2.514 11.416c.23-.07.392-.132.488-.185.098-.053.18-.126.247-.22.068-.094.12-.237.16-.43.037-.194.056-.496.056-.906v-3.833c0-.375-.006-.677-.018-.905-.012-.23-.053-.412-.123-.55-.07-.137-.177-.24-.32-.307-.144-.068-.348-.125-.612-.172v-.465l2.048-.08h.536v6.285c0 .504.024.854.07 1.05.048.196.137.346.27.448.13.104.346.193.645.27v.43h-3.447v-.43zm13.055.57c-1.22 0-2.15-.358-2.79-1.076-.642-.718-.963-1.78-.963-3.186 0-.967.168-1.784.505-2.452.337-.668.798-1.165 1.384-1.49.586-.325 1.254-.488 2.004-.488 1.254 0 2.203.365 2.848 1.094.644.73.967 1.777.967 3.143 0 .972-.16 1.793-.484 2.46-.323.668-.78 1.168-1.372 1.5-.592.33-1.292.496-2.1.496zm-2.092-4.447c0 1.207.192 2.135.576 2.782.383.648.933.97 1.647.97.392 0 .726-.094 1-.284.277-.19.5-.446.674-.768.173-.323.297-.696.373-1.12.077-.426.115-.87.115-1.333 0-.862-.096-1.577-.286-2.145-.19-.568-.45-.986-.778-1.253-.328-.266-.703-.4-1.125-.4-.71 0-1.252.308-1.63.923-.378.616-.567 1.492-.567 2.628zM92.76 236.267c.117.515.275.922.475 1.22.2.3.457.52.773.665.316.143.724.215 1.222.215.685 0 1.21-.18 1.577-.536.367-.356.55-.878.55-1.563 0-.44-.076-.81-.23-1.108-.15-.3-.4-.58-.746-.845-.345-.263-.872-.57-1.58-.922-.686-.34-1.228-.673-1.627-.998-.398-.325-.696-.678-.892-1.06-.195-.38-.293-.796-.293-1.247 0-.656.153-1.226.46-1.71.31-.483.76-.857 1.355-1.12.594-.264 1.275-.396 2.043-.396.445 0 .88.024 1.305.07.425.047.957.153 1.595.317v2.372h-.87c-.134-.516-.304-.917-.51-1.204-.205-.287-.445-.488-.72-.602-.276-.114-.633-.17-1.072-.17-.38 0-.723.07-1.024.21-.303.14-.542.352-.718.637-.175.284-.263.622-.263 1.015 0 .416.073.767.223 1.054.15.288.382.554.698.8.318.246.787.522 1.408.826.75.375 1.33.724 1.744 1.046.413.323.736.69.967 1.103.23.413.346.895.346 1.446 0 .615-.096 1.135-.29 1.56-.193.425-.46.77-.804 1.037-.343.267-.753.46-1.23.58-.478.12-1 .18-1.57.18-.92 0-1.98-.155-3.18-.465v-2.408h.878zm14.663-9.115v1.705h-1.618v-1.705h1.618zm-2.514 11.417c.228-.07.39-.132.487-.185.096-.053.178-.126.246-.22.067-.094.12-.237.158-.43.04-.194.058-.496.058-.906v-3.833c0-.375-.006-.677-.017-.905-.01-.23-.052-.412-.122-.55-.07-.137-.178-.24-.32-.307-.145-.068-.348-.125-.612-.172v-.465l2.048-.08h.536v6.285c0 .504.023.854.07 1.05.047.196.136.346.268.448.132.104.347.193.646.27v.43h-3.445v-.43zm8.703-7.533c.293-.047.53-.13.712-.246.18-.116.323-.267.426-.452.103-.184.184-.416.243-.694.058-.278.12-.684.184-1.217h1.248v2.17h2.84v.888h-2.84v3.91c0 .57.024 1.022.07 1.36.047.336.135.6.264.79.128.19.274.327.44.41.163.08.374.122.63.122.236 0 .455-.048.66-.145.206-.097.408-.236.607-.417l.396.474c-.417.404-.81.697-1.183.878-.372.182-.757.273-1.155.273-.756 0-1.32-.223-1.688-.672-.37-.448-.554-1.15-.554-2.105v-4.878h-1.3v-.448zm17.712 6.47c-.375.39-.72.7-1.033.922-.313.22-.657.396-1.032.522s-.788.19-1.24.19c-1.207 0-2.118-.363-2.733-1.087-.615-.723-.923-1.79-.923-3.203 0-.873.157-1.644.47-2.312.314-.668.76-1.184 1.34-1.547.58-.363 1.25-.545 2.005-.545.59 0 1.094.094 1.51.28.416.19.75.445.998.77.25.326.442.736.58 1.23.138.496.215 1.142.233 1.94h-5.536v.157c0 .692.077 1.273.233 1.745.155.472.41.84.764 1.107.356.267.817.4 1.386.4.48 0 .912-.09 1.296-.268.384-.18.766-.47 1.147-.875l.535.57zm-1.477-3.57c-.035-.632-.114-1.15-.237-1.55-.122-.402-.306-.71-.553-.924-.246-.213-.568-.32-.966-.32-.603 0-1.085.24-1.445.725-.36.483-.573 1.173-.637 2.07h3.84z" fill="#939393"/></g></svg>