<svg width="152" height="186" viewBox="0 0 152 186" xmlns="http://www.w3.org/2000/svg"><title>Slice 1</title><defs><linearGradient x1="50%" y1="100%" x2="50%" y2="0%" id="a"><stop stop-color="#EA693F" stop-opacity=".77" offset="0%"/><stop stop-color="#A8A697" offset="0%"/><stop stop-color="#FFF" offset="100%"/></linearGradient></defs><g fill="none" fill-rule="evenodd"><path d="M12.322 51.322c-9.763 9.763-9.763 25.593 0 35.356l16.26 16.26c.385.385.885.58 1.388.59.52.007 1.046-.188 1.447-.59l16.26-16.26c9.764-9.763 9.764-25.593 0-35.356-9.762-9.763-25.592-9.763-35.355 0z" fill="url(#a)" transform="rotate(90 30 73.764)"/><path d="M58.322 94.322c-9.763 9.763-9.763 25.593 0 35.356l16.26 16.26c.385.385.885.58 1.388.59.52.007 1.046-.188 1.447-.59l16.26-16.26c9.764-9.763 9.764-25.593 0-35.356-9.762-9.763-25.592-9.763-35.355 0z" fill="url(#a)"/><path d="M103.322 51.322c-9.763 9.763-9.763 25.593 0 35.356l16.26 16.26c.385.385 1.388 1.59 1.388 1.59s1.046-1.188 1.447-1.59l16.26-16.26c9.764-9.763 9.764-25.593 0-35.356-9.762-9.763-25.592-9.763-35.355 0z" fill="url(#a)" transform="rotate(-90 121 74.264)"/><path d="M58.322 8.322c-9.763 9.763-9.763 25.593 0 35.356l16.26 16.26c.385.385.885.58 1.388.59.52.007 1.046-.188 1.447-.59l16.26-16.26c9.764-9.763 9.764-25.593 0-35.356-9.762-9.763-25.592-9.763-35.355 0z" fill="url(#a)" transform="rotate(-180 76 30.764)"/><path d="M75.5 147.5v37" stroke="#979797" stroke-linecap="square"/></g></svg>